<svg width="45" height="45" viewBox="0 0 45 45" fill="none" xmlns="http://www.w3.org/2000/svg">
<g clip-path="url(#clip0_65_499)">
<path d="M17.4147 16.4335H16.7723H12.49V20.3589H17.0935C17.9143 20.3589 18.628 20.1448 18.628 18.2534C18.628 16.3621 17.4147 16.4335 17.4147 16.4335Z" fill="white"/>
<path d="M17.4147 23.2136H12.49V28.2097H16.808C16.8794 28.2097 16.9864 28.2097 17.1292 28.2097C17.8429 28.2097 19.199 27.9242 19.199 25.783C19.2346 23.2493 17.4147 23.2136 17.4147 23.2136Z" fill="white"/>
<path d="M33.6876 0.0178223H11.2768C5.06741 0.0178223 0 5.08523 0 11.2946V33.7411C0 39.9147 5.06741 44.9821 11.2768 44.9821H33.7232C39.9326 44.9821 45 39.9147 45 33.7054V11.2946C44.9643 5.08523 39.8969 0.0178223 33.6876 0.0178223ZM26.4076 14.2922H33.9017V16.0765H26.4076V14.2922ZM22.9104 26.0329C22.9104 31.5999 17.4148 31.7783 17.4148 31.7783H12.3473H12.2046H8.56463V13.2216H12.1689H12.3117H17.3791C20.1269 13.2216 22.3037 14.7918 22.3037 18.0749C22.3037 21.358 19.663 21.5365 19.663 21.5365C23.1602 21.5008 22.9104 26.0329 22.9104 26.0329ZM36.364 25.7117H27.3354C27.3354 29.2803 30.4044 28.9948 30.4044 28.9948C33.295 28.9948 33.1879 27.1392 33.1879 27.1392H36.2569C36.2569 32.1352 30.2974 31.9211 30.2974 31.9211C23.1602 31.9211 23.6241 24.8909 23.6241 24.8909C23.6241 24.8909 23.6241 17.8251 30.2974 17.8251C37.3275 17.7894 36.364 25.7117 36.364 25.7117Z" fill="white"/>
<path d="M30.3688 20.3945C27.6923 20.3945 27.2998 23.2137 27.2998 23.2137H33.0096C33.0096 23.2137 33.0452 20.3945 30.3688 20.3945Z" fill="white"/>
</g>
<defs>
<clipPath id="clip0_65_499">
<rect width="45" height="45" fill="white"/>
</clipPath>
</defs>
</svg>
