<svg width="35" height="35" viewBox="0 0 35 35" fill="none" xmlns="http://www.w3.org/2000/svg">
<path d="M20.4972 17.5L24.9925 13.0047C25.5442 12.453 25.5442 11.5586 24.9925 11.0065L23.9935 10.0075C23.4418 9.45584 22.5474 9.45584 21.9953 10.0075L17.5 14.5028L13.0047 10.0075C12.453 9.45584 11.5586 9.45584 11.0065 10.0075L10.0075 11.0065C9.45584 11.5582 9.45584 12.4526 10.0075 13.0047L14.5028 17.5L10.0075 21.9953C9.45584 22.547 9.45584 23.4414 10.0075 23.9935L11.0065 24.9925C11.5582 25.5442 12.453 25.5442 13.0047 24.9925L17.5 20.4972L21.9953 24.9925C22.547 25.5442 23.4418 25.5442 23.9935 24.9925L24.9925 23.9935C25.5442 23.4418 25.5442 22.5474 24.9925 21.9953L20.4972 17.5Z" fill="white"/>
<rect x="0.75" y="0.75" width="33.5" height="33.5" rx="4.25" stroke="white" stroke-width="1.5"/>
</svg>
