<svg width="140" height="131" viewBox="0 0 140 131" fill="none" xmlns="http://www.w3.org/2000/svg">
<g clip-path="url(#clip0_49_212)">
<path d="M121.893 118.925H14.1422C12.6462 118.925 11.4338 117.713 11.4338 116.218V45.1996C11.4338 43.7043 12.6462 42.4904 14.1422 42.4904H40.3567C41.8527 42.4904 43.065 43.7043 43.065 45.1996C43.065 46.6971 41.8527 47.9066 40.3567 47.9066H16.8527V113.511H119.182V86.6975C119.182 85.2 120.394 83.9883 121.893 83.9883C123.386 83.9883 124.599 85.2 124.599 86.6975V116.218C124.599 117.713 123.386 118.925 121.893 118.925Z" fill="#B8A6FF"/>
<mask id="mask0_49_212" style="mask-type:luminance" maskUnits="userSpaceOnUse" x="0" y="113" width="137" height="18">
<path d="M0 113.42H136.17V130.508H0V113.42Z" fill="white"/>
</mask>
<g mask="url(#mask0_49_212)">
<path d="M16.6112 125.161H119.43L126.141 118.929H9.90024L16.6112 125.161ZM120.494 130.575H15.5474C14.8626 130.575 14.2043 130.318 13.7034 129.853L1.1591 118.205C0.343502 117.449 0.0731117 116.269 0.483129 115.234C0.888714 114.195 1.88827 113.515 3.00308 113.515H133.039C134.153 113.515 135.151 114.195 135.558 115.234C135.969 116.269 135.698 117.449 134.883 118.205L122.338 129.853C121.837 130.318 121.179 130.575 120.494 130.575Z" fill="#B8A6FF"/>
</g>
<mask id="mask1_49_212" style="mask-type:luminance" maskUnits="userSpaceOnUse" x="38" y="0" width="96" height="84">
<path d="M38.5815 0.0664673H133.901V83.9307H38.5815V0.0664673Z" fill="white"/>
</mask>
<g mask="url(#mask1_49_212)">
<path d="M66.2145 68.1029C66.8816 68.1029 67.5288 68.351 68.0297 68.8029C70.0842 70.6504 72.2828 72.2277 74.5678 73.4837C80.2438 76.6271 86.5957 78.2398 92.9964 77.9829C105.809 77.6617 117.593 70.5242 123.765 59.3638C123.765 59.3616 123.765 59.3616 123.765 59.3616C133.424 41.9144 127.086 19.8596 109.634 10.1967C104.41 7.31473 98.7699 5.79951 92.879 5.70204C79.3417 5.41849 66.9769 12.5338 60.4454 24.3189C60.1396 24.8837 59.8249 25.4663 59.5323 26.0777C55.1329 35.1513 54.734 45.718 58.4375 55.0774C58.7832 55.9546 58.648 56.947 58.0829 57.7024L48.0009 71.1267L65.7668 68.1406C65.9153 68.1162 66.066 68.1029 66.2145 68.1029ZM91.9127 83.419C84.9867 83.419 78.1072 81.6313 71.9525 78.2243C69.6764 76.9727 67.4756 75.4531 65.4011 73.6942L42.2185 77.5885C41.1214 77.7547 40.0288 77.2718 39.4548 76.3259C38.8785 75.3822 38.9384 74.1815 39.6033 73.2932L52.8612 55.6289C49.191 45.2284 49.8204 33.6893 54.6498 23.723C54.9778 23.0451 55.3346 22.3805 55.6937 21.7182C63.2136 8.14544 77.4601 0.0465516 92.9853 0.285797C99.7562 0.398774 106.246 2.13773 112.256 5.45393C132.323 16.5678 139.612 41.9255 128.506 61.9845C121.407 74.8173 107.859 83.0247 93.1494 83.3991C92.7371 83.408 92.3271 83.419 91.9127 83.419Z" fill="#B8A6FF"/>
</g>
<path d="M80.3412 52.439V52.4589C80.3412 52.4523 80.3412 52.4479 80.3412 52.439ZM93.105 60.4759C92.6551 60.4759 92.2029 60.4692 91.7508 60.4581C87.6307 60.3319 83.7322 59.654 80.7778 58.5398C75.8399 56.6856 74.8669 54.1403 74.9224 52.3327L75.1418 39.8786C75.1661 38.4011 76.3763 37.2181 77.8479 37.2181C77.8656 37.2181 77.8833 37.2181 77.8989 37.2181C79.3949 37.2447 80.5872 38.4786 80.5584 39.9739L80.3435 52.202C81.1746 53.1324 85.2437 54.8447 91.9148 55.0397C98.5549 55.2745 102.733 53.7814 103.63 52.8998L103.841 40.7337C103.87 39.2362 105.226 38.0178 106.598 38.0732C108.096 38.0998 109.286 39.3337 109.26 40.8268L109.04 53.314C108.892 58.3249 101.137 60.4759 93.105 60.4759Z" fill="#B8A6FF"/>
<path d="M75.902 35.8979L92.1166 43.2214L108.737 36.8814L92.5421 28.8999L75.902 35.8979ZM92.0279 48.8614C91.6467 48.8614 91.2655 48.7817 90.9131 48.6199L68.0119 38.2792C67.0323 37.834 66.4051 36.8526 66.4184 35.7782C66.4339 34.6994 67.0855 33.7336 68.0784 33.3149L91.5802 23.4283C92.3049 23.127 93.125 23.147 93.8298 23.497L116.702 34.7681C117.668 35.2444 118.26 36.2456 118.211 37.3222C118.16 38.3989 117.476 39.3403 116.469 39.7258L92.9942 48.6842C92.6817 48.8038 92.3559 48.8614 92.0279 48.8614Z" fill="#B8A6FF"/>
<path d="M121.893 118.925H14.1422C12.6462 118.925 11.4338 117.713 11.4338 116.218V45.1996C11.4338 43.7043 12.6462 42.4904 14.1422 42.4904H40.3567C41.8527 42.4904 43.065 43.7043 43.065 45.1996C43.065 46.6971 41.8527 47.9066 40.3567 47.9066H16.8527V113.511H119.182V86.6975C119.182 85.2 120.394 83.9883 121.893 83.9883C123.386 83.9883 124.599 85.2 124.599 86.6975V116.218C124.599 117.713 123.386 118.925 121.893 118.925Z" fill="#B8A6FF"/>
<mask id="mask2_49_212" style="mask-type:luminance" maskUnits="userSpaceOnUse" x="0" y="113" width="137" height="18">
<path d="M0 113.42H136.17V130.508H0V113.42Z" fill="white"/>
</mask>
<g mask="url(#mask2_49_212)">
<path d="M16.6112 125.161H119.43L126.141 118.929H9.90024L16.6112 125.161ZM120.494 130.575H15.5474C14.8626 130.575 14.2043 130.318 13.7034 129.853L1.1591 118.205C0.343502 117.449 0.0731117 116.269 0.483129 115.234C0.888714 114.195 1.88827 113.515 3.00308 113.515H133.039C134.153 113.515 135.151 114.195 135.558 115.234C135.969 116.269 135.698 117.449 134.883 118.205L122.338 129.853C121.837 130.318 121.179 130.575 120.494 130.575Z" fill="#B8A6FF"/>
</g>
<mask id="mask3_49_212" style="mask-type:luminance" maskUnits="userSpaceOnUse" x="38" y="0" width="96" height="84">
<path d="M38.5815 0.0664673H133.901V83.9307H38.5815V0.0664673Z" fill="white"/>
</mask>
<g mask="url(#mask3_49_212)">
<path d="M66.2145 68.1029C66.8816 68.1029 67.5288 68.351 68.0297 68.8029C70.0842 70.6504 72.2828 72.2277 74.5678 73.4837C80.2438 76.6271 86.5957 78.2398 92.9964 77.9829C105.809 77.6617 117.593 70.5242 123.765 59.3638C123.765 59.3616 123.765 59.3616 123.765 59.3616C133.424 41.9144 127.086 19.8596 109.634 10.1967C104.41 7.31473 98.7699 5.79951 92.879 5.70204C79.3417 5.41849 66.9769 12.5338 60.4454 24.3189C60.1396 24.8837 59.8249 25.4663 59.5323 26.0777C55.1329 35.1513 54.734 45.718 58.4375 55.0774C58.7832 55.9546 58.648 56.947 58.0829 57.7024L48.0009 71.1267L65.7668 68.1406C65.9153 68.1162 66.066 68.1029 66.2145 68.1029ZM91.9127 83.419C84.9867 83.419 78.1072 81.6313 71.9525 78.2243C69.6764 76.9727 67.4756 75.4531 65.4011 73.6942L42.2185 77.5885C41.1214 77.7547 40.0288 77.2718 39.4548 76.3259C38.8785 75.3822 38.9384 74.1815 39.6033 73.2932L52.8612 55.6289C49.191 45.2284 49.8204 33.6893 54.6498 23.723C54.9778 23.0451 55.3346 22.3805 55.6937 21.7182C63.2136 8.14544 77.4601 0.0465516 92.9853 0.285797C99.7562 0.398774 106.246 2.13773 112.256 5.45393C132.323 16.5678 139.612 41.9255 128.506 61.9845C121.407 74.8173 107.859 83.0247 93.1494 83.3991C92.7371 83.408 92.3271 83.419 91.9127 83.419Z" fill="#B8A6FF"/>
</g>
<path d="M80.3412 52.439V52.4589C80.3412 52.4523 80.3412 52.4479 80.3412 52.439ZM93.105 60.4759C92.6551 60.4759 92.2029 60.4692 91.7508 60.4581C87.6307 60.3319 83.7322 59.654 80.7778 58.5398C75.8399 56.6856 74.8669 54.1403 74.9224 52.3327L75.1418 39.8786C75.1661 38.4011 76.3763 37.2181 77.8479 37.2181C77.8656 37.2181 77.8833 37.2181 77.8989 37.2181C79.3949 37.2447 80.5872 38.4786 80.5584 39.9739L80.3435 52.202C81.1746 53.1324 85.2437 54.8447 91.9148 55.0397C98.5549 55.2745 102.733 53.7814 103.63 52.8998L103.841 40.7337C103.87 39.2362 105.226 38.0178 106.598 38.0732C108.096 38.0998 109.286 39.3337 109.26 40.8268L109.04 53.314C108.892 58.3249 101.137 60.4759 93.105 60.4759Z" fill="#B8A6FF"/>
<path d="M75.902 35.8979L92.1166 43.2214L108.737 36.8814L92.5421 28.8999L75.902 35.8979ZM92.0279 48.8614C91.6467 48.8614 91.2655 48.7817 90.9131 48.6199L68.0119 38.2792C67.0323 37.834 66.4051 36.8526 66.4184 35.7782C66.4339 34.6994 67.0855 33.7336 68.0784 33.3149L91.5802 23.4283C92.3049 23.127 93.125 23.147 93.8298 23.497L116.702 34.7681C117.668 35.2444 118.26 36.2456 118.211 37.3222C118.16 38.3989 117.476 39.3403 116.469 39.7258L92.9942 48.6842C92.6817 48.8038 92.3559 48.8614 92.0279 48.8614Z" fill="#B8A6FF"/>
</g>
<defs>
<clipPath id="clip0_49_212">
<rect width="140" height="131" fill="white"/>
</clipPath>
</defs>
</svg>
