<svg width="118" height="135" viewBox="0 0 118 135" fill="none" xmlns="http://www.w3.org/2000/svg">
<g clip-path="url(#clip0_48_51)">
<path d="M74.698 74.7481C69.5255 71.7667 62.9181 73.5336 59.9343 78.6998C56.4502 84.7266 60.5489 91.6437 50.6516 100.992C63.1215 102.565 75.1733 95.5291 78.6528 89.5001C81.6412 84.3362 79.8706 77.7296 74.698 74.7481Z" fill="#B8A6FF"/>
<path d="M78.493 68.1757C82.5118 70.4929 85.3082 74.1135 86.6928 78.193C94.3556 63.5324 103.874 40.9525 110.001 20.4568C111.059 16.9389 106.627 14.3821 104.102 17.0508C89.4024 32.6063 74.5884 52.1294 65.7124 66.0892C69.9437 65.2491 74.4788 65.8586 78.493 68.1757Z" fill="#B8A6FF"/>
<mask id="mask0_48_51" style="mask-type:luminance" maskUnits="userSpaceOnUse" x="0" y="41" width="118" height="94">
<path d="M0 41.4935H117.415V134.395H0V41.4935Z" fill="white"/>
</mask>
<g mask="url(#mask0_48_51)">
<path d="M8.36656 48.9085H36.3769V56.7685H8.36656V48.9085ZM111.461 41.496H110.954C108.151 49.1231 105.023 56.8598 101.795 64.1809H109.076V126.038H8.36656V64.1809H57.9331L59.3039 62.0236C63.398 55.5814 68.3444 48.5478 73.6792 41.496H5.9722C2.66396 41.496 0 44.1693 0 47.4612V128.432C0 131.733 2.66396 134.395 5.9722 134.395H111.461C114.779 134.395 117.447 131.733 117.447 128.432V47.4612C117.447 44.1693 114.779 41.496 111.461 41.496Z" fill="#B8A6FF"/>
</g>
<path d="M64.4809 25.6047L66.7519 26.2279C69.3565 26.9471 71.3944 28.9765 72.1095 31.5836L72.7378 33.8505C73.2039 35.558 75.6234 35.558 76.0918 33.8505L76.7178 31.5836C77.4329 28.9765 79.4708 26.9471 82.0754 26.2279L84.3441 25.6047C86.053 25.1367 86.053 22.7192 84.3441 22.2489L82.0754 21.6257C79.4708 20.9111 77.4329 18.8771 76.7178 16.2746L76.0918 14.0032C75.6234 12.3001 73.2039 12.3001 72.7378 14.0032L72.1095 16.2746C71.3944 18.8771 69.3565 20.9111 66.7519 21.6257L64.4809 22.2489C62.7765 22.7192 62.7765 25.1367 64.4809 25.6047Z" fill="#B8A6FF"/>
<path d="M33.528 16.197L36.233 16.9389C39.3402 17.7927 41.7643 20.2171 42.6188 23.3218L43.3636 26.0248C43.9233 28.0565 46.8043 28.0565 47.3618 26.0248L48.1066 23.3218C48.9588 20.2171 51.3874 17.7927 54.4946 16.9389L57.1997 16.197C59.2285 15.6377 59.2285 12.759 57.1997 12.1997L54.4946 11.4555C51.3874 10.6017 48.9588 8.17953 48.1066 5.07482L47.3618 2.3719C46.8043 0.340144 43.9233 0.340144 43.3636 2.3719L42.6188 5.07482C41.7643 8.17953 39.3402 10.6017 36.233 11.4555L33.528 12.1997C31.4946 12.759 31.4946 15.6377 33.528 16.197Z" fill="#B8A6FF"/>
<path d="M74.698 74.7481C69.5255 71.7667 62.9181 73.5336 59.9343 78.6998C56.4502 84.7266 60.5489 91.6437 50.6516 100.992C63.1215 102.565 75.1733 95.5291 78.6528 89.5001C81.6412 84.3362 79.8706 77.7296 74.698 74.7481Z" fill="#B8A6FF"/>
<path d="M78.493 68.1757C82.5118 70.4929 85.3082 74.1135 86.6928 78.193C94.3556 63.5324 103.874 40.9525 110.001 20.4568C111.059 16.9389 106.627 14.3821 104.102 17.0508C89.4024 32.6063 74.5884 52.1294 65.7124 66.0892C69.9437 65.2491 74.4788 65.8586 78.493 68.1757Z" fill="#B8A6FF"/>
<mask id="mask1_48_51" style="mask-type:luminance" maskUnits="userSpaceOnUse" x="0" y="41" width="118" height="94">
<path d="M0 41.4935H117.415V134.395H0V41.4935Z" fill="white"/>
</mask>
<g mask="url(#mask1_48_51)">
<path d="M8.36656 48.9085H36.3769V56.7685H8.36656V48.9085ZM111.461 41.496H110.954C108.151 49.1231 105.023 56.8598 101.795 64.1809H109.076V126.038H8.36656V64.1809H57.9331L59.3039 62.0236C63.398 55.5814 68.3444 48.5478 73.6792 41.496H5.9722C2.66396 41.496 0 44.1693 0 47.4612V128.432C0 131.733 2.66396 134.395 5.9722 134.395H111.461C114.779 134.395 117.447 131.733 117.447 128.432V47.4612C117.447 44.1693 114.779 41.496 111.461 41.496Z" fill="#B8A6FF"/>
</g>
<path d="M64.4809 25.6047L66.7519 26.2279C69.3565 26.9471 71.3944 28.9765 72.1095 31.5836L72.7378 33.8505C73.2039 35.558 75.6234 35.558 76.0918 33.8505L76.7178 31.5836C77.4329 28.9765 79.4708 26.9471 82.0754 26.2279L84.3441 25.6047C86.053 25.1367 86.053 22.7192 84.3441 22.2489L82.0754 21.6257C79.4708 20.9111 77.4329 18.8771 76.7178 16.2746L76.0918 14.0032C75.6234 12.3001 73.2039 12.3001 72.7378 14.0032L72.1095 16.2746C71.3944 18.8771 69.3565 20.9111 66.7519 21.6257L64.4809 22.2489C62.7765 22.7192 62.7765 25.1367 64.4809 25.6047Z" fill="#B8A6FF"/>
<path d="M33.528 16.197L36.233 16.9389C39.3402 17.7927 41.7643 20.2171 42.6188 23.3218L43.3636 26.0248C43.9233 28.0565 46.8043 28.0565 47.3618 26.0248L48.1066 23.3218C48.9588 20.2171 51.3874 17.7927 54.4946 16.9389L57.1997 16.197C59.2285 15.6377 59.2285 12.759 57.1997 12.1997L54.4946 11.4555C51.3874 10.6017 48.9588 8.17953 48.1066 5.07482L47.3618 2.3719C46.8043 0.340144 43.9233 0.340144 43.3636 2.3719L42.6188 5.07482C41.7643 8.17953 39.3402 10.6017 36.233 11.4555L33.528 12.1997C31.4946 12.759 31.4946 15.6377 33.528 16.197Z" fill="#B8A6FF"/>
</g>
<defs>
<clipPath id="clip0_48_51">
<rect width="118" height="135" fill="white"/>
</clipPath>
</defs>
</svg>
