<svg width="163" height="117" viewBox="0 0 163 117" fill="none" xmlns="http://www.w3.org/2000/svg">
<g clip-path="url(#clip0_48_26)">
<path d="M98.3407 53.1007C98.2002 52.9602 98.0478 52.8356 97.8816 52.7248C97.7173 52.614 97.5432 52.521 97.3591 52.4439C97.1751 52.3687 96.9851 52.3113 96.7912 52.2717C96.5953 52.2322 96.3994 52.2144 96.1995 52.2144C96.0016 52.2144 95.8037 52.2322 95.6098 52.2717C95.4139 52.3113 95.2239 52.3687 95.0418 52.4439C94.8578 52.519 94.6836 52.614 94.5174 52.7228C94.3531 52.8336 94.1988 52.9602 94.0583 53.1007C93.9178 53.2412 93.7931 53.3935 93.6823 53.5597C93.5715 53.7239 93.4785 53.9 93.4033 54.0821C93.3261 54.2661 93.2687 54.456 93.2311 54.6499C93.1915 54.8457 93.1717 55.0436 93.1737 55.2414C93.1737 55.4393 93.1915 55.6371 93.2311 55.833C93.2707 56.0269 93.3281 56.2168 93.4033 56.4008C93.4804 56.5829 93.5735 56.757 93.6843 56.9232C93.7951 57.0874 93.9198 57.2417 94.0622 57.3822L107.281 70.5965L94.0622 83.8148C93.9158 83.9533 93.7872 84.1056 93.6724 84.2718C93.5596 84.438 93.4626 84.6121 93.3835 84.7961C93.3043 84.9821 93.243 85.1721 93.2014 85.3679C93.1599 85.5658 93.1401 85.7636 93.1381 85.9654C93.1361 86.1653 93.1539 86.3651 93.1915 86.5629C93.2291 86.7588 93.2865 86.9507 93.3617 87.1367C93.4389 87.3227 93.5319 87.4988 93.6427 87.6669C93.7555 87.8331 93.8822 87.9894 94.0246 88.1299C94.1651 88.2723 94.3215 88.399 94.4877 88.5098C94.6559 88.6225 94.832 88.7155 95.0181 88.7907C95.2041 88.8679 95.396 88.9252 95.592 88.9628C95.7898 89.0004 95.9897 89.0182 96.1896 89.0163C96.3914 89.0143 96.5893 88.9945 96.7872 88.9529C96.9831 88.9114 97.1731 88.8501 97.3591 88.7709C97.5432 88.6918 97.7173 88.5948 97.8835 88.4821C98.0498 88.3673 98.2022 88.2367 98.3407 88.0923L113.701 72.7293C113.84 72.5889 113.966 72.4365 114.077 72.2703C114.186 72.1061 114.281 71.932 114.356 71.748C114.431 71.564 114.489 71.3741 114.528 71.1802C114.568 70.9863 114.586 70.7884 114.586 70.5906C114.586 70.3907 114.568 70.1949 114.528 69.999C114.489 69.8051 114.431 69.6152 114.356 69.4312C114.281 69.2492 114.186 69.0751 114.077 68.9089C113.966 68.7446 113.84 68.5903 113.701 68.4498L98.3407 53.1007Z" fill="#B8A6FF"/>
<path d="M68.9932 53.1007C68.8527 52.9602 68.6983 52.8356 68.5341 52.7248C68.3679 52.614 68.1937 52.521 68.0117 52.4458C67.8276 52.3687 67.6376 52.3113 67.4437 52.2737C67.2478 52.2341 67.0519 52.2144 66.852 52.2144C66.6541 52.2144 66.4582 52.2341 66.2623 52.2737C66.0683 52.3113 65.8784 52.3687 65.6943 52.4458C65.5103 52.521 65.3361 52.614 65.1719 52.7248C65.0057 52.8356 64.8533 52.9602 64.7128 53.1007L49.3524 68.4578C49.2119 68.5982 49.0852 68.7526 48.9764 68.9168C48.8656 69.083 48.7726 69.2571 48.6954 69.4411C48.6202 69.6231 48.5628 69.813 48.5232 70.0069C48.4856 70.2028 48.4658 70.3987 48.4658 70.5985C48.4658 70.7963 48.4856 70.9942 48.5232 71.1881C48.5628 71.3839 48.6202 71.5719 48.6954 71.7559C48.7726 71.9399 48.8656 72.114 48.9764 72.2782C49.0852 72.4444 49.2119 72.5968 49.3524 72.7372L64.7128 88.0923C64.8553 88.2288 65.0076 88.3515 65.1719 88.4583C65.3381 88.5652 65.5123 88.6542 65.6943 88.7274C65.8764 88.8006 66.0644 88.854 66.2583 88.8896C66.4503 88.9272 66.6462 88.9431 66.8421 88.9431C67.038 88.9411 67.232 88.9193 67.4259 88.8797C67.6178 88.8402 67.8039 88.7828 67.9859 88.7076C68.168 88.6304 68.3402 88.5375 68.5024 88.4286C68.6647 88.3198 68.8171 88.1952 68.9556 88.0567C69.0941 87.9182 69.2188 87.7658 69.3276 87.6036C69.4385 87.4394 69.5315 87.2673 69.6067 87.0872C69.6819 86.9052 69.7412 86.7192 69.7808 86.5253C69.8204 86.3334 69.8402 86.1395 69.8422 85.9437C69.8441 85.7458 69.8263 85.5519 69.7907 85.358C69.7531 85.1661 69.6997 84.9782 69.6265 84.7961C69.5532 84.6121 69.4642 84.438 69.3573 84.2738C69.2505 84.1096 69.1297 83.9553 68.9932 83.8148L55.772 70.5965L68.9932 57.3822C69.1337 57.2417 69.2584 57.0874 69.3692 56.9232C69.48 56.757 69.573 56.5829 69.6502 56.3989C69.7254 56.2168 69.7828 56.0269 69.8224 55.831C69.86 55.6371 69.8798 55.4393 69.8798 55.2414C69.8798 55.0416 69.86 54.8457 69.8224 54.6499C69.7828 54.456 69.7254 54.266 69.6502 54.0821C69.573 53.9 69.48 53.7239 69.3692 53.5597C69.2584 53.3935 69.1337 53.2412 68.9932 53.1007Z" fill="#B8A6FF"/>
<path d="M88.4955 45.5369C88.3036 45.4855 88.1096 45.4518 87.9098 45.436C87.7119 45.4222 87.514 45.4261 87.3161 45.4518C87.1182 45.4756 86.9263 45.5191 86.7363 45.5824C86.5483 45.6438 86.3662 45.7249 86.194 45.8238C86.0199 45.9208 85.8596 46.0355 85.7092 46.1661C85.5568 46.2967 85.4223 46.4391 85.2996 46.5974C85.1769 46.7537 85.072 46.9219 84.9829 47.0999C84.8939 47.278 84.8227 47.462 84.7692 47.6539L72.4603 91.9266C72.4049 92.1185 72.3673 92.3144 72.3495 92.5142C72.3337 92.714 72.3356 92.9139 72.3574 93.1137C72.3792 93.3135 72.4207 93.5074 72.4821 93.6993C72.5434 93.8912 72.6226 94.0732 72.7215 94.2493C72.8185 94.4234 72.9313 94.5877 73.0619 94.74C73.1925 94.8943 73.337 95.0328 73.4953 95.1555C73.6516 95.2801 73.8198 95.387 73.9999 95.478C74.178 95.569 74.364 95.6402 74.558 95.6936C74.7519 95.7471 74.9478 95.7807 75.1497 95.7965C75.3495 95.8104 75.5494 95.8044 75.7473 95.7787C75.9472 95.755 76.1411 95.7095 76.3311 95.6461C76.5211 95.5809 76.7031 95.4997 76.8773 95.3988C77.0514 95.2979 77.2137 95.1832 77.3641 95.0506C77.5145 94.9181 77.651 94.7717 77.7737 94.6114C77.8944 94.4511 77.9993 94.283 78.0864 94.1009C78.1755 93.9209 78.2447 93.7349 78.2942 93.5391L90.6031 49.2703C90.6565 49.0784 90.6902 48.8826 90.706 48.6847C90.7218 48.4869 90.7179 48.289 90.6921 48.0912C90.6684 47.8933 90.6268 47.6994 90.5635 47.5115C90.5022 47.3215 90.423 47.1395 90.3241 46.9674C90.2271 46.7933 90.1123 46.631 89.9817 46.4807C89.8531 46.3303 89.7086 46.1938 89.5523 46.0711C89.396 45.9485 89.2277 45.8416 89.0516 45.7526C88.8735 45.6616 88.6875 45.5903 88.4955 45.5369Z" fill="#B8A6FF"/>
<mask id="mask0_48_26" style="mask-type:luminance" maskUnits="userSpaceOnUse" x="0" y="0" width="163" height="117">
<path d="M0 0.0455322H162.873V116.575H0V0.0455322Z" fill="white"/>
</mask>
<g mask="url(#mask0_48_26)">
<path d="M149.947 0.0554199H13.1063C12.6828 0.0573983 12.2594 0.0791618 11.8359 0.122689C11.4144 0.166215 10.9948 0.229527 10.5793 0.312624C10.1637 0.397699 9.75206 0.502559 9.34638 0.627203C8.9407 0.751849 8.54294 0.8943 8.15111 1.05851C7.75929 1.22273 7.37538 1.40475 7.00334 1.60656C6.62932 1.80638 6.2652 2.026 5.91295 2.26342C5.5607 2.49886 5.22231 2.7521 4.89381 3.02316C4.56728 3.29223 4.25263 3.57911 3.95382 3.87984C3.655 4.18057 3.37003 4.49515 3.10288 4.82358C2.83375 5.15201 2.58242 5.49231 2.34693 5.84646C2.11144 6.20061 1.89376 6.56465 1.69586 6.93859C1.49599 7.31252 1.31591 7.69635 1.15364 8.08809C0.991368 8.48181 0.850864 8.88146 0.728171 9.28706C0.605477 9.69265 0.502574 10.1042 0.419459 10.5216C0.338323 10.9371 0.276976 11.3566 0.235419 11.78C0.193861 12.2014 0.174072 12.6248 0.174072 13.0482V103.705C0.176051 104.128 0.195841 104.551 0.237398 104.973C0.280934 105.394 0.342281 105.812 0.425396 106.227C0.50851 106.643 0.611414 107.052 0.734108 107.458C0.856801 107.861 1.00126 108.261 1.16156 108.651C1.32383 109.043 1.50589 109.424 1.70576 109.798C1.90563 110.17 2.12331 110.534 2.3588 110.886C2.5943 111.239 2.84562 111.577 3.11475 111.905C3.38191 112.232 3.66687 112.544 3.96569 112.845C4.26451 113.144 4.57916 113.427 4.90568 113.696C5.23418 113.965 5.57258 114.216 5.92482 114.452C6.27707 114.687 6.63922 114.905 7.01323 115.105C7.38725 115.304 7.76918 115.486 8.15903 115.649C8.55086 115.811 8.94862 115.953 9.3543 116.076C9.75998 116.199 10.1696 116.302 10.5852 116.385C11.0008 116.468 11.4183 116.531 11.8398 116.573C12.2613 116.614 12.6828 116.636 13.1063 116.636H149.947C150.37 116.636 150.792 116.614 151.213 116.573C151.635 116.531 152.054 116.468 152.47 116.385C152.884 116.302 153.295 116.199 153.699 116.076C154.105 115.953 154.502 115.811 154.894 115.649C155.286 115.486 155.668 115.304 156.04 115.105C156.414 114.905 156.776 114.687 157.128 114.452C157.481 114.216 157.821 113.965 158.148 113.696C158.474 113.429 158.789 113.144 159.088 112.845C159.386 112.544 159.671 112.232 159.941 111.905C160.208 111.577 160.461 111.239 160.696 110.886C160.932 110.534 161.148 110.17 161.348 109.798C161.547 109.424 161.729 109.043 161.892 108.651C162.054 108.261 162.196 107.861 162.319 107.458C162.442 107.052 162.545 106.643 162.628 106.227C162.711 105.812 162.774 105.394 162.816 104.973C162.857 104.551 162.879 104.128 162.879 103.705V13.0482C162.879 12.6248 162.859 12.2014 162.818 11.78C162.776 11.3566 162.715 10.9371 162.634 10.5216C162.551 10.1042 162.448 9.69265 162.327 9.28706C162.204 8.88146 162.062 8.48181 161.9 8.08809C161.737 7.69635 161.557 7.31252 161.359 6.93859C161.16 6.56465 160.942 6.20061 160.706 5.84646C160.471 5.49231 160.22 5.15201 159.952 4.82358C159.683 4.49515 159.398 4.18057 159.099 3.87984C158.801 3.57911 158.488 3.29223 158.159 3.02316C157.833 2.7521 157.493 2.49886 157.14 2.26342C156.788 2.026 156.424 1.80638 156.052 1.60656C155.678 1.40475 155.294 1.22273 154.902 1.05851C154.512 0.8943 154.113 0.751849 153.707 0.627203C153.301 0.502559 152.89 0.397699 152.474 0.312624C152.058 0.229527 151.639 0.166215 151.217 0.122689C150.794 0.0791618 150.37 0.0573983 149.947 0.0554199ZM6.2276 13.0482C6.2276 12.5951 6.26916 12.146 6.35623 11.7008C6.4433 11.2557 6.57193 10.8243 6.7441 10.4029C6.91627 9.98348 7.12801 9.58581 7.37736 9.20594C7.62868 8.82805 7.91166 8.47785 8.23225 8.15536C8.55086 7.83484 8.89915 7.54598 9.27514 7.29274C9.65114 7.03751 10.0469 6.82383 10.4665 6.64775C10.884 6.47166 11.3154 6.33911 11.7607 6.2481C12.2039 6.15708 12.6532 6.1096 13.1063 6.10762H149.947C150.4 6.1096 150.849 6.15708 151.295 6.2481C151.738 6.33911 152.169 6.47166 152.589 6.64775C153.006 6.82383 153.404 7.03751 153.778 7.29274C154.154 7.54598 154.502 7.83484 154.821 8.15536C155.142 8.47785 155.427 8.82805 155.676 9.20594C155.927 9.58581 156.137 9.98348 156.309 10.4029C156.481 10.8243 156.61 11.2557 156.697 11.7008C156.784 12.146 156.828 12.5951 156.826 13.0482V29.068H6.2276V13.0482ZM149.947 110.594H13.1063C12.6551 110.594 12.2079 110.55 11.7646 110.461C11.3214 110.372 10.8919 110.242 10.4744 110.069C10.0588 109.895 9.66103 109.684 9.28702 109.432C8.91102 109.181 8.56471 108.896 8.24412 108.578C7.92552 108.257 7.64055 107.911 7.38923 107.535C7.13791 107.159 6.92616 106.763 6.75399 106.346C6.57985 105.928 6.44924 105.499 6.36217 105.056C6.27312 104.615 6.22958 104.168 6.2276 103.714V35.1261H156.826V103.714C156.826 104.168 156.78 104.615 156.693 105.056C156.604 105.499 156.473 105.928 156.301 106.346C156.127 106.763 155.915 107.159 155.664 107.535C155.413 107.911 155.128 108.257 154.809 108.578C154.491 108.896 154.142 109.181 153.766 109.432C153.392 109.684 152.996 109.895 152.579 110.069C152.161 110.242 151.732 110.372 151.289 110.461C150.845 110.55 150.398 110.594 149.947 110.594Z" fill="#B8A6FF"/>
</g>
<path d="M19.718 11.6929C19.3302 11.6929 18.9462 11.7305 18.5663 11.8076C18.1863 11.8828 17.8183 11.9936 17.4601 12.142C17.1019 12.2904 16.7635 12.4724 16.4409 12.6861C16.1184 12.9017 15.8215 13.1471 15.5464 13.4201C15.2734 13.6931 15.0299 13.9919 14.8142 14.3124C14.5985 14.6349 14.4165 14.9752 14.2681 15.3313C14.1196 15.6894 14.0088 16.0574 13.9336 16.4373C13.8564 16.8172 13.8188 17.201 13.8188 17.5888C13.8188 17.9746 13.8564 18.3584 13.9316 18.7383C14.0068 19.1181 14.1196 19.4861 14.2681 19.8443C14.4145 20.2024 14.5966 20.5427 14.8123 20.8632C15.026 21.1857 15.2714 21.4844 15.5445 21.7575C15.8176 22.0305 16.1164 22.2758 16.437 22.4915C16.7595 22.7071 17.0999 22.8872 17.4561 23.0356C17.8143 23.1839 18.1824 23.2967 18.5623 23.3719C18.9423 23.4491 19.3262 23.4867 19.7121 23.4867C20.1 23.4867 20.4839 23.4491 20.8638 23.3739C21.2438 23.2987 21.6118 23.1879 21.97 23.0395C22.3282 22.8911 22.6686 22.7111 22.9892 22.4954C23.3117 22.2798 23.6106 22.0364 23.8837 21.7634C24.1587 21.4904 24.4021 21.1916 24.6178 20.8711C24.8335 20.5486 25.0156 20.2083 25.164 19.8522C25.3124 19.4941 25.4252 19.1261 25.5004 18.7462C25.5756 18.3663 25.6152 17.9825 25.6152 17.5967C25.6152 17.2089 25.5776 16.8251 25.5024 16.4452C25.4252 16.0653 25.3144 15.6973 25.166 15.3392C25.0176 14.9811 24.8355 14.6408 24.6218 14.3183C24.4061 13.9958 24.1607 13.6991 23.8876 13.4241C23.6145 13.151 23.3157 12.9057 22.9951 12.69C22.6726 12.4744 22.3322 12.2924 21.974 12.144C21.6158 11.9956 21.2477 11.8828 20.8678 11.8076C20.4878 11.7324 20.1039 11.6929 19.718 11.6929ZM19.5617 17.5967C19.5716 17.5037 19.625 17.4562 19.718 17.4562C19.811 17.4562 19.8645 17.5037 19.8744 17.5967C19.8744 17.7589 19.5617 17.7609 19.5617 17.5967Z" fill="#B8A6FF"/>
<path d="M40.0098 11.6929C39.622 11.6929 39.238 11.7305 38.8581 11.8056C38.4781 11.8808 38.1101 11.9936 37.7519 12.14C37.3937 12.2884 37.0553 12.4704 36.7327 12.6841C36.4102 12.8997 36.1113 13.1431 35.8382 13.4181C35.5632 13.6911 35.3198 13.9879 35.1041 14.3104C34.8884 14.6329 34.7063 14.9712 34.5579 15.3293C34.4095 15.6874 34.2986 16.0554 34.2215 16.4353C34.1463 16.8152 34.1087 17.199 34.1067 17.5848C34.1067 17.9726 34.1443 18.3564 34.2195 18.7363C34.2947 19.1162 34.4075 19.4842 34.5539 19.8423C34.7023 20.2004 34.8844 20.5407 35.0981 20.8612C35.3138 21.1837 35.5572 21.4824 35.8323 21.7555C36.1054 22.0305 36.4022 22.2738 36.7248 22.4895C37.0454 22.7051 37.3858 22.8872 37.744 23.0356C38.1021 23.1839 38.4702 23.2967 38.8502 23.3719C39.2301 23.4491 39.6121 23.4867 39.9999 23.4867C40.3878 23.4867 40.7717 23.4491 41.1517 23.3739C41.5316 23.2987 41.8997 23.1879 42.2579 23.0395C42.6161 22.8911 42.9545 22.7111 43.277 22.4954C43.5996 22.2818 43.8984 22.0364 44.1715 21.7634C44.4466 21.4904 44.69 21.1916 44.9057 20.8711C45.1214 20.5486 45.3034 20.2103 45.4519 19.8522C45.6003 19.4941 45.7131 19.1261 45.7883 18.7462C45.8655 18.3663 45.9031 17.9825 45.9031 17.5967C45.9031 17.2089 45.8655 16.8251 45.7903 16.4452C45.7151 16.0653 45.6023 15.6973 45.4558 15.3392C45.3074 14.9811 45.1253 14.6428 44.9096 14.3203C44.6959 13.9978 44.4505 13.6991 44.1774 13.426C43.9043 13.151 43.6055 12.9077 43.2849 12.692C42.9624 12.4764 42.624 12.2943 42.2658 12.1459C41.9076 11.9976 41.5395 11.8848 41.1596 11.8076C40.7796 11.7324 40.3977 11.6948 40.0098 11.6929ZM39.8495 17.5967C39.8614 17.5037 39.9129 17.4562 40.0059 17.4562C40.1008 17.4562 40.1523 17.5037 40.1622 17.5967C40.1642 17.7609 39.8495 17.7589 39.8495 17.5967Z" fill="#B8A6FF"/>
<path d="M98.3407 53.1007C98.2002 52.9602 98.0478 52.8356 97.8816 52.7248C97.7173 52.614 97.5432 52.521 97.3591 52.4439C97.1751 52.3687 96.9851 52.3113 96.7912 52.2717C96.5953 52.2322 96.3994 52.2144 96.1995 52.2144C96.0016 52.2144 95.8037 52.2322 95.6098 52.2717C95.4139 52.3113 95.2239 52.3687 95.0418 52.4439C94.8578 52.519 94.6836 52.614 94.5174 52.7228C94.3531 52.8336 94.1988 52.9602 94.0583 53.1007C93.9178 53.2412 93.7931 53.3935 93.6823 53.5597C93.5715 53.7239 93.4785 53.9 93.4033 54.0821C93.3261 54.2661 93.2687 54.456 93.2311 54.6499C93.1915 54.8457 93.1717 55.0436 93.1737 55.2414C93.1737 55.4393 93.1915 55.6371 93.2311 55.833C93.2707 56.0269 93.3281 56.2168 93.4033 56.4008C93.4804 56.5829 93.5735 56.757 93.6843 56.9232C93.7951 57.0874 93.9198 57.2417 94.0622 57.3822L107.281 70.5965L94.0622 83.8148C93.9158 83.9533 93.7872 84.1056 93.6724 84.2718C93.5596 84.438 93.4626 84.6121 93.3835 84.7961C93.3043 84.9821 93.243 85.1721 93.2014 85.3679C93.1599 85.5658 93.1401 85.7636 93.1381 85.9654C93.1361 86.1653 93.1539 86.3651 93.1915 86.5629C93.2291 86.7588 93.2865 86.9507 93.3617 87.1367C93.4389 87.3227 93.5319 87.4988 93.6427 87.6669C93.7555 87.8331 93.8822 87.9894 94.0246 88.1299C94.1651 88.2723 94.3215 88.399 94.4877 88.5098C94.6559 88.6225 94.832 88.7155 95.0181 88.7907C95.2041 88.8679 95.396 88.9252 95.592 88.9628C95.7898 89.0004 95.9897 89.0182 96.1896 89.0163C96.3914 89.0143 96.5893 88.9945 96.7872 88.9529C96.9831 88.9114 97.1731 88.8501 97.3591 88.7709C97.5432 88.6918 97.7173 88.5948 97.8835 88.4821C98.0498 88.3673 98.2022 88.2367 98.3407 88.0923L113.701 72.7293C113.84 72.5889 113.966 72.4365 114.077 72.2703C114.186 72.1061 114.281 71.932 114.356 71.748C114.431 71.564 114.489 71.3741 114.528 71.1802C114.568 70.9863 114.586 70.7884 114.586 70.5906C114.586 70.3907 114.568 70.1949 114.528 69.999C114.489 69.8051 114.431 69.6152 114.356 69.4312C114.281 69.2492 114.186 69.0751 114.077 68.9089C113.966 68.7446 113.84 68.5903 113.701 68.4498L98.3407 53.1007Z" fill="#B8A6FF"/>
<path d="M68.9932 53.1007C68.8527 52.9602 68.6983 52.8356 68.5341 52.7248C68.3679 52.614 68.1937 52.521 68.0117 52.4458C67.8276 52.3687 67.6376 52.3113 67.4437 52.2737C67.2478 52.2341 67.0519 52.2144 66.852 52.2144C66.6541 52.2144 66.4582 52.2341 66.2623 52.2737C66.0683 52.3113 65.8784 52.3687 65.6943 52.4458C65.5103 52.521 65.3361 52.614 65.1719 52.7248C65.0057 52.8356 64.8533 52.9602 64.7128 53.1007L49.3524 68.4578C49.2119 68.5982 49.0852 68.7526 48.9764 68.9168C48.8656 69.083 48.7726 69.2571 48.6954 69.4411C48.6202 69.6231 48.5628 69.813 48.5232 70.0069C48.4856 70.2028 48.4658 70.3987 48.4658 70.5985C48.4658 70.7963 48.4856 70.9942 48.5232 71.1881C48.5628 71.3839 48.6202 71.5719 48.6954 71.7559C48.7726 71.9399 48.8656 72.114 48.9764 72.2782C49.0852 72.4444 49.2119 72.5968 49.3524 72.7372L64.7128 88.0923C64.8553 88.2288 65.0076 88.3515 65.1719 88.4583C65.3381 88.5652 65.5123 88.6542 65.6943 88.7274C65.8764 88.8006 66.0644 88.854 66.2583 88.8896C66.4503 88.9272 66.6462 88.9431 66.8421 88.9431C67.038 88.9411 67.232 88.9193 67.4259 88.8797C67.6178 88.8402 67.8039 88.7828 67.9859 88.7076C68.168 88.6304 68.3402 88.5375 68.5024 88.4286C68.6647 88.3198 68.8171 88.1952 68.9556 88.0567C69.0941 87.9182 69.2188 87.7658 69.3276 87.6036C69.4385 87.4394 69.5315 87.2673 69.6067 87.0872C69.6819 86.9052 69.7412 86.7192 69.7808 86.5253C69.8204 86.3334 69.8402 86.1395 69.8422 85.9437C69.8441 85.7458 69.8263 85.5519 69.7907 85.358C69.7531 85.1661 69.6997 84.9782 69.6265 84.7961C69.5532 84.6121 69.4642 84.438 69.3573 84.2738C69.2505 84.1096 69.1297 83.9553 68.9932 83.8148L55.772 70.5965L68.9932 57.3822C69.1337 57.2417 69.2584 57.0874 69.3692 56.9232C69.48 56.757 69.573 56.5829 69.6502 56.3989C69.7254 56.2168 69.7828 56.0269 69.8224 55.831C69.86 55.6371 69.8798 55.4393 69.8798 55.2414C69.8798 55.0416 69.86 54.8457 69.8224 54.6499C69.7828 54.456 69.7254 54.266 69.6502 54.0821C69.573 53.9 69.48 53.7239 69.3692 53.5597C69.2584 53.3935 69.1337 53.2412 68.9932 53.1007Z" fill="#B8A6FF"/>
<path d="M88.4955 45.5369C88.3036 45.4855 88.1096 45.4518 87.9098 45.436C87.7119 45.4222 87.514 45.4261 87.3161 45.4518C87.1182 45.4756 86.9263 45.5191 86.7363 45.5824C86.5483 45.6438 86.3662 45.7249 86.194 45.8238C86.0199 45.9208 85.8596 46.0355 85.7092 46.1661C85.5568 46.2967 85.4223 46.4391 85.2996 46.5974C85.1769 46.7537 85.072 46.9219 84.9829 47.0999C84.8939 47.278 84.8227 47.462 84.7692 47.6539L72.4603 91.9266C72.4049 92.1185 72.3673 92.3144 72.3495 92.5142C72.3337 92.714 72.3356 92.9139 72.3574 93.1137C72.3792 93.3135 72.4207 93.5074 72.4821 93.6993C72.5434 93.8912 72.6226 94.0732 72.7215 94.2493C72.8185 94.4234 72.9313 94.5877 73.0619 94.74C73.1925 94.8943 73.337 95.0328 73.4953 95.1555C73.6516 95.2801 73.8198 95.387 73.9999 95.478C74.178 95.569 74.364 95.6402 74.558 95.6936C74.7519 95.7471 74.9478 95.7807 75.1497 95.7965C75.3495 95.8104 75.5494 95.8044 75.7473 95.7787C75.9472 95.755 76.1411 95.7095 76.3311 95.6461C76.5211 95.5809 76.7031 95.4997 76.8773 95.3988C77.0514 95.2979 77.2137 95.1832 77.3641 95.0506C77.5145 94.9181 77.651 94.7717 77.7737 94.6114C77.8944 94.4511 77.9993 94.283 78.0864 94.1009C78.1755 93.9209 78.2447 93.7349 78.2942 93.5391L90.6031 49.2703C90.6565 49.0784 90.6902 48.8826 90.706 48.6847C90.7218 48.4869 90.7179 48.289 90.6921 48.0912C90.6684 47.8933 90.6268 47.6994 90.5635 47.5115C90.5022 47.3215 90.423 47.1395 90.3241 46.9674C90.2271 46.7933 90.1123 46.631 89.9817 46.4807C89.8531 46.3303 89.7086 46.1938 89.5523 46.0711C89.396 45.9485 89.2277 45.8416 89.0516 45.7526C88.8735 45.6616 88.6875 45.5903 88.4955 45.5369Z" fill="#B8A6FF"/>
<mask id="mask1_48_26" style="mask-type:luminance" maskUnits="userSpaceOnUse" x="0" y="0" width="163" height="117">
<path d="M0 0.0455322H162.873V116.575H0V0.0455322Z" fill="white"/>
</mask>
<g mask="url(#mask1_48_26)">
<path d="M149.947 0.0554199H13.1063C12.6828 0.0573983 12.2594 0.0791618 11.8359 0.122689C11.4144 0.166215 10.9948 0.229527 10.5793 0.312624C10.1637 0.397699 9.75206 0.502559 9.34638 0.627203C8.9407 0.751849 8.54294 0.8943 8.15111 1.05851C7.75929 1.22273 7.37538 1.40475 7.00334 1.60656C6.62932 1.80638 6.2652 2.026 5.91295 2.26342C5.5607 2.49886 5.22231 2.7521 4.89381 3.02316C4.56728 3.29223 4.25263 3.57911 3.95382 3.87984C3.655 4.18057 3.37003 4.49515 3.10288 4.82358C2.83375 5.15201 2.58242 5.49231 2.34693 5.84646C2.11144 6.20061 1.89376 6.56465 1.69586 6.93859C1.49599 7.31252 1.31591 7.69635 1.15364 8.08809C0.991368 8.48181 0.850864 8.88146 0.728171 9.28706C0.605477 9.69265 0.502574 10.1042 0.419459 10.5216C0.338323 10.9371 0.276976 11.3566 0.235419 11.78C0.193861 12.2014 0.174072 12.6248 0.174072 13.0482V103.705C0.176051 104.128 0.195841 104.551 0.237398 104.973C0.280934 105.394 0.342281 105.812 0.425396 106.227C0.50851 106.643 0.611414 107.052 0.734108 107.458C0.856801 107.861 1.00126 108.261 1.16156 108.651C1.32383 109.043 1.50589 109.424 1.70576 109.798C1.90563 110.17 2.12331 110.534 2.3588 110.886C2.5943 111.239 2.84562 111.577 3.11475 111.905C3.38191 112.232 3.66687 112.544 3.96569 112.845C4.26451 113.144 4.57916 113.427 4.90568 113.696C5.23418 113.965 5.57258 114.216 5.92482 114.452C6.27707 114.687 6.63922 114.905 7.01323 115.105C7.38725 115.304 7.76918 115.486 8.15903 115.649C8.55086 115.811 8.94862 115.953 9.3543 116.076C9.75998 116.199 10.1696 116.302 10.5852 116.385C11.0008 116.468 11.4183 116.531 11.8398 116.573C12.2613 116.614 12.6828 116.636 13.1063 116.636H149.947C150.37 116.636 150.792 116.614 151.213 116.573C151.635 116.531 152.054 116.468 152.47 116.385C152.884 116.302 153.295 116.199 153.699 116.076C154.105 115.953 154.502 115.811 154.894 115.649C155.286 115.486 155.668 115.304 156.04 115.105C156.414 114.905 156.776 114.687 157.128 114.452C157.481 114.216 157.821 113.965 158.148 113.696C158.474 113.429 158.789 113.144 159.088 112.845C159.386 112.544 159.671 112.232 159.941 111.905C160.208 111.577 160.461 111.239 160.696 110.886C160.932 110.534 161.148 110.17 161.348 109.798C161.547 109.424 161.729 109.043 161.892 108.651C162.054 108.261 162.196 107.861 162.319 107.458C162.442 107.052 162.545 106.643 162.628 106.227C162.711 105.812 162.774 105.394 162.816 104.973C162.857 104.551 162.879 104.128 162.879 103.705V13.0482C162.879 12.6248 162.859 12.2014 162.818 11.78C162.776 11.3566 162.715 10.9371 162.634 10.5216C162.551 10.1042 162.448 9.69265 162.327 9.28706C162.204 8.88146 162.062 8.48181 161.9 8.08809C161.737 7.69635 161.557 7.31252 161.359 6.93859C161.16 6.56465 160.942 6.20061 160.706 5.84646C160.471 5.49231 160.22 5.15201 159.952 4.82358C159.683 4.49515 159.398 4.18057 159.099 3.87984C158.801 3.57911 158.488 3.29223 158.159 3.02316C157.833 2.7521 157.493 2.49886 157.14 2.26342C156.788 2.026 156.424 1.80638 156.052 1.60656C155.678 1.40475 155.294 1.22273 154.902 1.05851C154.512 0.8943 154.113 0.751849 153.707 0.627203C153.301 0.502559 152.89 0.397699 152.474 0.312624C152.058 0.229527 151.639 0.166215 151.217 0.122689C150.794 0.0791618 150.37 0.0573983 149.947 0.0554199ZM6.2276 13.0482C6.2276 12.5951 6.26916 12.146 6.35623 11.7008C6.4433 11.2557 6.57193 10.8243 6.7441 10.4029C6.91627 9.98348 7.12801 9.58581 7.37736 9.20594C7.62868 8.82805 7.91166 8.47785 8.23225 8.15536C8.55086 7.83484 8.89915 7.54598 9.27514 7.29274C9.65114 7.03751 10.0469 6.82383 10.4665 6.64775C10.884 6.47166 11.3154 6.33911 11.7607 6.2481C12.2039 6.15708 12.6532 6.1096 13.1063 6.10762H149.947C150.4 6.1096 150.849 6.15708 151.295 6.2481C151.738 6.33911 152.169 6.47166 152.589 6.64775C153.006 6.82383 153.404 7.03751 153.778 7.29274C154.154 7.54598 154.502 7.83484 154.821 8.15536C155.142 8.47785 155.427 8.82805 155.676 9.20594C155.927 9.58581 156.137 9.98348 156.309 10.4029C156.481 10.8243 156.61 11.2557 156.697 11.7008C156.784 12.146 156.828 12.5951 156.826 13.0482V29.068H6.2276V13.0482ZM149.947 110.594H13.1063C12.6551 110.594 12.2079 110.55 11.7646 110.461C11.3214 110.372 10.8919 110.242 10.4744 110.069C10.0588 109.895 9.66103 109.684 9.28702 109.432C8.91102 109.181 8.56471 108.896 8.24412 108.578C7.92552 108.257 7.64055 107.911 7.38923 107.535C7.13791 107.159 6.92616 106.763 6.75399 106.346C6.57985 105.928 6.44924 105.499 6.36217 105.056C6.27312 104.615 6.22958 104.168 6.2276 103.714V35.1261H156.826V103.714C156.826 104.168 156.78 104.615 156.693 105.056C156.604 105.499 156.473 105.928 156.301 106.346C156.127 106.763 155.915 107.159 155.664 107.535C155.413 107.911 155.128 108.257 154.809 108.578C154.491 108.896 154.142 109.181 153.766 109.432C153.392 109.684 152.996 109.895 152.579 110.069C152.161 110.242 151.732 110.372 151.289 110.461C150.845 110.55 150.398 110.594 149.947 110.594Z" fill="#B8A6FF"/>
</g>
<path d="M19.718 11.6929C19.3302 11.6929 18.9462 11.7305 18.5663 11.8076C18.1863 11.8828 17.8183 11.9936 17.4601 12.142C17.1019 12.2904 16.7635 12.4724 16.4409 12.6861C16.1184 12.9017 15.8215 13.1471 15.5464 13.4201C15.2734 13.6931 15.0299 13.9919 14.8142 14.3124C14.5985 14.6349 14.4165 14.9752 14.2681 15.3313C14.1196 15.6894 14.0088 16.0574 13.9336 16.4373C13.8564 16.8172 13.8188 17.201 13.8188 17.5888C13.8188 17.9746 13.8564 18.3584 13.9316 18.7383C14.0068 19.1181 14.1196 19.4861 14.2681 19.8443C14.4145 20.2024 14.5966 20.5427 14.8123 20.8632C15.026 21.1857 15.2714 21.4844 15.5445 21.7575C15.8176 22.0305 16.1164 22.2758 16.437 22.4915C16.7595 22.7071 17.0999 22.8872 17.4561 23.0356C17.8143 23.1839 18.1824 23.2967 18.5623 23.3719C18.9423 23.4491 19.3262 23.4867 19.7121 23.4867C20.1 23.4867 20.4839 23.4491 20.8638 23.3739C21.2438 23.2987 21.6118 23.1879 21.97 23.0395C22.3282 22.8911 22.6686 22.7111 22.9892 22.4954C23.3117 22.2798 23.6106 22.0364 23.8837 21.7634C24.1587 21.4904 24.4021 21.1916 24.6178 20.8711C24.8335 20.5486 25.0156 20.2083 25.164 19.8522C25.3124 19.4941 25.4252 19.1261 25.5004 18.7462C25.5756 18.3663 25.6152 17.9825 25.6152 17.5967C25.6152 17.2089 25.5776 16.8251 25.5024 16.4452C25.4252 16.0653 25.3144 15.6973 25.166 15.3392C25.0176 14.9811 24.8355 14.6408 24.6218 14.3183C24.4061 13.9958 24.1607 13.6991 23.8876 13.4241C23.6145 13.151 23.3157 12.9057 22.9951 12.69C22.6726 12.4744 22.3322 12.2924 21.974 12.144C21.6158 11.9956 21.2477 11.8828 20.8678 11.8076C20.4878 11.7324 20.1039 11.6929 19.718 11.6929ZM19.5617 17.5967C19.5716 17.5037 19.625 17.4562 19.718 17.4562C19.811 17.4562 19.8645 17.5037 19.8744 17.5967C19.8744 17.7589 19.5617 17.7609 19.5617 17.5967Z" fill="#B8A6FF"/>
<path d="M40.0098 11.6929C39.622 11.6929 39.238 11.7305 38.8581 11.8056C38.4781 11.8808 38.1101 11.9936 37.7519 12.14C37.3937 12.2884 37.0553 12.4704 36.7327 12.6841C36.4102 12.8997 36.1113 13.1431 35.8382 13.4181C35.5632 13.6911 35.3198 13.9879 35.1041 14.3104C34.8884 14.6329 34.7063 14.9712 34.5579 15.3293C34.4095 15.6874 34.2986 16.0554 34.2215 16.4353C34.1463 16.8152 34.1087 17.199 34.1067 17.5848C34.1067 17.9726 34.1443 18.3564 34.2195 18.7363C34.2947 19.1162 34.4075 19.4842 34.5539 19.8423C34.7023 20.2004 34.8844 20.5407 35.0981 20.8612C35.3138 21.1837 35.5572 21.4824 35.8323 21.7555C36.1054 22.0305 36.4022 22.2738 36.7248 22.4895C37.0454 22.7051 37.3858 22.8872 37.744 23.0356C38.1021 23.1839 38.4702 23.2967 38.8502 23.3719C39.2301 23.4491 39.6121 23.4867 39.9999 23.4867C40.3878 23.4867 40.7717 23.4491 41.1517 23.3739C41.5316 23.2987 41.8997 23.1879 42.2579 23.0395C42.6161 22.8911 42.9545 22.7111 43.277 22.4954C43.5996 22.2818 43.8984 22.0364 44.1715 21.7634C44.4466 21.4904 44.69 21.1916 44.9057 20.8711C45.1214 20.5486 45.3034 20.2103 45.4519 19.8522C45.6003 19.4941 45.7131 19.1261 45.7883 18.7462C45.8655 18.3663 45.9031 17.9825 45.9031 17.5967C45.9031 17.2089 45.8655 16.8251 45.7903 16.4452C45.7151 16.0653 45.6023 15.6973 45.4558 15.3392C45.3074 14.9811 45.1253 14.6428 44.9096 14.3203C44.6959 13.9978 44.4505 13.6991 44.1774 13.426C43.9043 13.151 43.6055 12.9077 43.2849 12.692C42.9624 12.4764 42.624 12.2943 42.2658 12.1459C41.9076 11.9976 41.5395 11.8848 41.1596 11.8076C40.7796 11.7324 40.3977 11.6948 40.0098 11.6929ZM39.8495 17.5967C39.8614 17.5037 39.9129 17.4562 40.0059 17.4562C40.1008 17.4562 40.1523 17.5037 40.1622 17.5967C40.1642 17.7609 39.8495 17.7589 39.8495 17.5967Z" fill="#B8A6FF"/>
</g>
<defs>
<clipPath id="clip0_48_26">
<rect width="163" height="117" fill="white"/>
</clipPath>
</defs>
</svg>
