<svg width="145" height="106" viewBox="0 0 145 106" fill="none" xmlns="http://www.w3.org/2000/svg">
<g clip-path="url(#clip0_461_2)">
<path d="M118.357 75.8105L96.8782 69.8019L92.0918 15.702H144.686L139.895 69.7934L118.357 75.8105Z" fill="#264DE4"/>
<path d="M135.793 66.349L139.887 20.1255H118.389V71.2113L135.793 66.349Z" fill="#2965F1"/>
<path d="M103.064 40.1903L103.655 46.8254H118.389V40.1903H103.064Z" fill="#EBEBEB"/>
<path d="M101.879 26.7606L102.477 33.3958H118.389V26.7606H101.879Z" fill="#EBEBEB"/>
<path d="M118.389 57.4225L118.36 57.4302L111.027 55.4349L110.558 50.1431H103.949L104.871 60.5612L118.359 64.3343L118.389 64.3258V57.4225Z" fill="#EBEBEB"/>
<path d="M104.469 1H112.444V4.36063H107.804V7.72126H112.444V11.0819H104.469V1Z" fill="white"/>
<path d="M114.039 1H122.014V3.92229H117.374V4.50674H122.014V11.228H114.039V8.1596H118.679V7.57514H114.039V1Z" fill="white"/>
<path d="M123.609 1H131.583V3.92229H126.944V4.50674H131.583V11.228H123.609V8.1596H128.248V7.57514H123.609V1Z" fill="white"/>
<path d="M133.671 40.1903L134.86 26.7606H118.366V33.3958H127.644L127.045 40.1903H118.366V46.8253H126.474L125.71 55.4306L118.366 57.428V64.331L131.864 60.5611L131.963 59.4401L133.511 41.972L133.671 40.1903Z" fill="white"/>
</g>
<g clip-path="url(#clip1_461_2)">
<path d="M52.4087 14.702L47.6425 68.7934L26.218 74.8105L4.85251 68.8019L0.0913086 14.702H52.4087Z" fill="#E44D26"/>
<path d="M26.25 70.2113L43.562 65.349L47.6351 19.1255H26.25V70.2113Z" fill="#F16529"/>
<path d="M16.9845 32.3958H26.2499V25.7606H9.82666L9.98344 27.5407L11.5932 45.8253H26.2499V39.1903H17.5831L16.9845 32.3958Z" fill="#EBEBEB"/>
<path d="M18.4607 49.1431H11.886L12.8036 59.5612L26.2199 63.3343L26.2501 63.3258V56.4225L26.2214 56.4302L18.927 54.4349L18.4607 49.1431Z" fill="#EBEBEB"/>
<path d="M4.95898 0H8.2874V3.33141H11.3321V0H14.6607V10.0883H11.3323V6.71015H8.28754V10.0883H4.95913L4.95898 0Z" fill="white"/>
<path d="M19.0376 3.34543H16.1074V0H25.2978V3.34543H22.3663V10.0883H19.0378L19.0376 3.34543Z" fill="white"/>
<path d="M26.7563 0H30.227L32.3619 3.54473L34.4946 0H37.9665V10.0883H34.6518V5.08799L32.3619 8.67495H32.3046L30.0131 5.08799V10.0883H26.7563V0Z" fill="white"/>
<path d="M39.623 0H42.9525V6.75369H47.6332V10.0883H39.623V0Z" fill="white"/>
<path d="M26.2273 45.8254H34.2924L33.5321 54.4306L26.2273 56.428V63.331L39.6543 59.5611L39.7528 58.4401L41.2919 40.972L41.4517 39.1903H26.2273V45.8254Z" fill="white"/>
<path d="M26.2273 32.3796V32.3958H42.0477L42.1791 30.9044L42.4775 27.5407L42.6341 25.7606H26.2273V32.3796Z" fill="white"/>
</g>
<g clip-path="url(#clip2_461_2)">
<path d="M109.582 77.5647C106.486 77.581 103.795 78.3295 101.541 79.436C100.715 77.7925 99.8879 76.328 99.742 75.2541C99.5799 74.0011 99.3853 73.2363 99.5799 71.7393C99.7744 70.2423 100.65 68.1106 100.634 67.9479C100.617 67.7852 100.439 67.0204 98.6558 67.0041C96.8726 66.9879 95.3325 67.3459 95.1542 67.8177C94.9759 68.2896 94.6354 69.3636 94.4085 70.4701C94.1005 72.0973 90.842 77.9064 88.9777 80.9493C88.3779 79.7614 87.8591 78.72 87.7456 77.8901C87.5835 76.6372 87.389 75.8724 87.5835 74.3754C87.7781 72.8783 88.6535 70.7467 88.6373 70.584C88.621 70.4213 88.4427 69.6565 86.6595 69.6402C84.8762 69.6239 83.3362 69.9819 83.1578 70.4538C82.9795 70.9257 82.785 72.0322 82.4121 73.1062C82.0393 74.1801 77.7108 83.8782 76.5761 86.3841C75.9924 87.6696 75.4899 88.6947 75.1332 89.3944C75.1332 89.3944 75.117 89.4432 75.0684 89.5246C74.7604 90.1267 74.5821 90.4521 74.5821 90.4521C74.5821 90.4521 74.5821 90.4521 74.5821 90.4684C74.3389 90.9077 74.0795 91.3145 73.9498 91.3145C73.8526 91.3145 73.6742 90.1429 73.9822 88.5483C74.6307 85.18 76.1708 79.9404 76.1546 79.7614C76.1546 79.6638 76.4464 78.7525 75.1495 78.2806C73.885 77.8088 73.4311 78.5898 73.3176 78.5898C73.2041 78.5898 73.123 78.8664 73.123 78.8664C73.123 78.8664 74.5334 72.976 70.432 72.976C67.8706 72.976 64.3365 75.791 62.5857 78.3295C61.4833 78.9315 59.1327 80.217 56.6199 81.6001C55.6635 82.1371 54.6746 82.6741 53.7506 83.1785C53.6857 83.1134 53.6209 83.0321 53.556 82.967C48.5954 77.646 39.4198 73.8872 39.8088 66.7438C39.9547 64.1403 40.8464 57.306 57.4305 49.0073C71.0804 42.2544 81.942 44.1257 83.8225 48.2751C86.5136 54.1981 78.0026 65.198 63.8988 66.7926C58.5167 67.3947 55.6959 65.3119 54.9826 64.5308C54.2369 63.7172 54.1234 63.6684 53.8478 63.8311C53.3939 64.0752 53.6857 64.8074 53.8478 65.2305C54.2693 66.337 56.0039 68.2896 58.9382 69.2497C61.532 70.0958 67.8382 70.5677 75.4737 67.6062C84.017 64.2867 90.6961 55.0605 88.7345 47.3313C86.773 39.4882 73.8039 36.9009 61.532 41.2781C54.2369 43.8816 46.3258 47.9822 40.6356 53.3194C33.8755 59.6655 32.8056 65.1817 33.2433 67.4923C34.8158 75.6934 46.0826 81.0306 50.5893 84.9847C50.3624 85.1149 50.1516 85.2288 49.9733 85.3264C47.72 86.4492 39.128 90.9565 36.9881 95.7242C34.5564 101.127 37.3771 104.999 39.2414 105.52C45.0289 107.131 50.9784 104.234 54.172 99.4505C57.3657 94.6666 56.9766 88.4506 55.5014 85.6031C55.4852 85.5705 55.4689 85.538 55.4365 85.5054C56.0201 85.1637 56.6199 84.8057 57.2036 84.464C58.3546 83.7806 59.4893 83.146 60.462 82.6253C59.9108 84.1386 59.5056 85.9448 59.311 88.5483C59.0679 91.6074 60.3161 95.5778 61.9535 97.1399C62.683 97.8233 63.5422 97.8396 64.0934 97.8396C66.0063 97.8396 66.8655 96.2449 67.822 94.3574C68.9892 92.0468 70.0429 89.3619 70.0429 89.3619C70.0429 89.3619 68.7298 96.6192 72.2963 96.6192C73.5932 96.6192 74.9063 94.9269 75.4899 94.0645V94.0808C75.4899 94.0808 75.5223 94.0319 75.5872 93.918C75.7169 93.7065 75.7979 93.5763 75.7979 93.5763V93.5438C76.3167 92.6326 77.4839 90.566 79.2185 87.1326C81.4557 82.7066 83.6118 77.1742 83.6118 77.1742C83.6118 77.1742 83.8063 78.5247 84.471 80.7703C84.86 82.0883 85.6706 83.5365 86.319 84.9359C85.8003 85.6681 85.4761 86.0749 85.4761 86.0749C85.4761 86.0749 85.4761 86.0749 85.4923 86.0912C85.0708 86.6445 84.6169 87.2465 84.1143 87.8323C82.3473 89.9477 80.2398 92.3722 79.948 93.0719C79.6076 93.9018 79.6886 94.5038 80.3371 94.992C80.8072 95.35 81.6502 95.3988 82.5094 95.35C84.0981 95.2361 85.2167 94.8456 85.7679 94.6015C86.6271 94.2923 87.6322 93.8204 88.5724 93.1207C90.307 91.8352 91.3608 89.9965 91.2635 87.572C91.2149 86.2377 90.7771 84.9034 90.2422 83.6504C90.4043 83.4226 90.5502 83.1948 90.7123 82.967C93.452 78.9478 95.5757 74.5381 95.5757 74.5381C95.5757 74.5381 95.7702 75.8887 96.4349 78.1342C96.7591 79.2732 97.4238 80.5099 98.0074 81.714C95.4298 83.8131 93.8411 86.2539 93.2737 87.8486C92.2524 90.8101 93.0467 92.1444 94.5544 92.4536C95.2353 92.6 96.2079 92.2746 96.9212 91.9654C97.8291 91.6725 98.899 91.1681 99.9203 90.4196C101.655 89.1341 103.325 87.3442 103.227 84.9196C103.179 83.8131 102.887 82.7229 102.482 81.6652C104.67 80.754 107.491 80.2496 111.09 80.6726C118.806 81.5839 120.33 86.4166 120.039 88.4507C119.747 90.4847 118.126 91.5911 117.591 91.9329C117.056 92.2746 116.877 92.3885 116.926 92.6326C116.991 92.9905 117.25 92.9743 117.704 92.9092C118.336 92.7953 121.757 91.2657 121.903 87.5231C122.146 82.7392 117.607 77.5159 109.582 77.5647ZM50.0544 97.7094C47.493 100.508 43.9265 101.566 42.3864 100.671C40.7329 99.7109 41.3813 95.5778 44.5263 92.6163C46.4393 90.8101 48.9034 89.1341 50.5407 88.1089C50.9136 87.8811 51.4648 87.5557 52.1294 87.1489C52.2429 87.0838 52.3077 87.0513 52.3077 87.0513C52.4374 86.9699 52.5671 86.8885 52.6968 86.8072C53.8478 91.0379 52.7455 94.7642 50.0544 97.7094ZM68.6974 84.9847C67.8057 87.1652 65.9414 92.7465 64.8067 92.4373C63.834 92.1769 63.2342 87.9462 64.6121 83.7643C65.3092 81.6652 66.7844 79.1593 67.6436 78.183C69.0378 76.6209 70.5779 76.1002 70.9507 76.7348C71.4209 77.5647 69.2485 83.6179 68.6974 84.9847ZM84.0819 92.3722C83.709 92.5675 83.3524 92.6976 83.1903 92.6C83.0768 92.5349 83.3524 92.2746 83.3524 92.2746C83.3524 92.2746 85.2815 90.1918 86.0435 89.248C86.4812 88.6947 86.9999 88.0439 87.5511 87.3116V87.5231C87.5511 90.0128 85.1518 91.6888 84.0819 92.3722ZM95.9486 89.6548C95.673 89.4595 95.7216 88.8086 96.6456 86.7746C97.0023 85.9773 97.8453 84.643 99.2881 83.3575C99.4502 83.8782 99.5637 84.3826 99.5475 84.8545C99.5312 87.995 97.2941 89.1666 95.9486 89.6548Z" fill="#CD6799"/>
</g>
<defs>
<clipPath id="clip0_461_2">
<rect width="52.7778" height="75" fill="white" transform="translate(92 1)"/>
</clipPath>
<clipPath id="clip1_461_2">
<rect width="52.5" height="75" fill="white"/>
</clipPath>
<clipPath id="clip2_461_2">
<rect width="89" height="67" fill="white" transform="translate(33 39)"/>
</clipPath>
</defs>
</svg>
