<svg width="143" height="65" viewBox="0 0 143 65" fill="none" xmlns="http://www.w3.org/2000/svg">
<g clip-path="url(#clip0_461_3)">
<path d="M83.0781 0H137.922C140.726 0 143 2.27355 143 5.07812V59.9219C143 62.7264 140.726 65 137.922 65H83.0781C80.2736 65 78 62.7264 78 59.9219V5.07812C78 2.27355 80.2736 0 83.0781 0Z" fill="#3178C6"/>
<path d="M116.217 50.9019V57.9147C117.358 58.4992 118.707 58.9375 120.264 59.2297C121.821 59.522 123.463 59.668 125.188 59.668C126.87 59.668 128.467 59.5072 129.98 59.1858C131.494 58.8644 132.821 58.3347 133.961 57.5971C135.102 56.8593 136.005 55.8949 136.67 54.7041C137.335 53.5135 137.668 52.0416 137.668 50.2884C137.668 49.0174 137.478 47.9032 137.098 46.9462C136.718 45.9893 136.169 45.1382 135.453 44.3932C134.736 43.648 133.877 42.9797 132.876 42.3879C131.874 41.7963 130.744 41.2374 129.487 40.7116C128.566 40.3315 127.74 39.9628 127.008 39.6048C126.277 39.2468 125.656 38.8817 125.144 38.5089C124.632 38.1365 124.238 37.7419 123.96 37.3255C123.682 36.9091 123.543 36.4381 123.543 35.912C123.543 35.4298 123.667 34.9954 123.916 34.6082C124.164 34.221 124.516 33.8886 124.969 33.6111C125.422 33.3333 125.978 33.118 126.636 32.9644C127.294 32.811 128.025 32.7344 128.829 32.7344C129.414 32.7344 130.032 32.7783 130.682 32.8659C131.333 32.9535 131.987 33.0886 132.645 33.2714C133.303 33.4539 133.943 33.684 134.564 33.9617C135.186 34.2393 135.76 34.5607 136.286 34.9258V28.3733C135.219 27.9642 134.053 27.6611 132.788 27.4638C131.523 27.2665 130.072 27.168 128.434 27.168C126.767 27.168 125.188 27.347 123.697 27.705C122.205 28.0627 120.893 28.6216 119.76 29.3813C118.627 30.1412 117.731 31.1091 117.073 32.2852C116.415 33.4613 116.086 34.8674 116.086 36.5038C116.086 38.593 116.689 40.3754 117.896 41.8511C119.102 43.3266 120.933 44.5758 123.39 45.5985C124.355 45.9931 125.254 46.38 126.087 46.7601C126.921 47.14 127.641 47.5343 128.248 47.9433C128.855 48.3524 129.333 48.798 129.684 49.2802C130.035 49.7623 130.211 50.3103 130.211 50.9239C130.211 51.3767 130.101 51.7969 129.882 52.1841C129.663 52.571 129.33 52.9072 128.884 53.1921C128.438 53.477 127.882 53.6996 127.217 53.8604C126.552 54.0211 125.773 54.1016 124.881 54.1016C123.36 54.1016 121.854 53.835 120.363 53.3015C118.871 52.7683 117.49 51.9685 116.217 50.9019ZM104.529 33.4501H113.547V27.6758H88.4102V33.4501H97.3844V59.1602H104.529V33.4501Z" fill="white"/>
</g>
<g clip-path="url(#clip1_461_3)">
<path d="M0 0H65V65H0V0Z" fill="#F7DF1E"/>
<path d="M17.0909 54.3188L22.0651 51.3084C23.0247 53.0099 23.8977 54.4495 25.9916 54.4495C27.9988 54.4495 29.2642 53.6643 29.2642 50.6104V29.8413H35.3726V50.6967C35.3726 57.0234 31.6641 59.9031 26.2535 59.9031C21.367 59.9031 18.5306 57.3723 17.0908 54.3183" fill="black"/>
<path d="M38.6905 53.6641L43.6641 50.7844C44.9734 52.9226 46.6751 54.4932 49.6855 54.4932C52.2165 54.4932 53.8304 53.2278 53.8304 51.4825C53.8304 49.3881 52.1725 48.6463 49.38 47.425L47.8533 46.7701C43.4462 44.8943 40.5228 42.5382 40.5228 37.564C40.5228 32.9826 44.0133 29.4919 49.4675 29.4919C53.3508 29.4919 56.1432 30.8447 58.1501 34.3789L53.3941 37.433C52.3469 35.557 51.2128 34.8153 49.4676 34.8153C47.6787 34.8153 46.5441 35.9497 46.5441 37.433C46.5441 39.2656 47.6787 40.0075 50.2963 41.142L51.8233 41.7964C57.0155 44.0218 59.939 46.2904 59.939 51.3952C59.939 56.8932 55.6195 59.9035 49.8165 59.9035C44.1444 59.9035 40.4791 57.1985 38.6905 53.6641Z" fill="black"/>
</g>
<defs>
<clipPath id="clip0_461_3">
<rect width="65" height="65" fill="white" transform="translate(78)"/>
</clipPath>
<clipPath id="clip1_461_3">
<rect width="65" height="65" fill="white"/>
</clipPath>
</defs>
</svg>
