<svg width="102" height="100" viewBox="0 0 102 100" fill="none" xmlns="http://www.w3.org/2000/svg">
<g clip-path="url(#clip0_51_127)">
<path d="M93.5113 77.0681C87.9881 76.9304 83.7075 77.483 80.1174 79.0016C79.0818 79.4156 77.4246 79.4161 77.2865 80.7276C77.8391 81.2802 77.908 82.1777 78.3914 82.9369C79.2204 84.3173 80.6696 86.1819 81.9815 87.1486C83.4312 88.2531 84.8813 89.3575 86.3998 90.3243C89.0926 91.9814 92.1305 92.9477 94.7539 94.6048C96.2733 95.5707 97.7914 96.8142 99.3103 97.8498C100.07 98.4016 100.553 99.2994 101.52 99.6446V99.4376C101.036 98.8161 100.898 97.9186 100.415 97.2282C99.7253 96.5378 99.0345 95.9163 98.3441 95.2259C96.3417 92.5336 93.8565 90.1861 91.1638 88.2531C88.9548 86.7341 84.1216 84.6629 83.2242 82.1084C83.2242 82.1084 83.1549 82.0395 83.086 81.9706C84.605 81.8325 86.3998 81.2802 87.8499 80.8657C90.1975 80.2442 92.3375 80.3824 94.7539 79.7613C95.8584 79.4849 96.9633 79.1397 98.0677 78.7945V78.1734C96.8255 76.9304 95.9277 75.2737 94.6157 74.0999C91.0949 71.0616 87.2284 68.0934 83.2242 65.6081C81.0837 64.2273 78.3221 63.3294 76.0439 62.1561C75.2157 61.7412 73.8345 61.5346 73.3516 60.8442C72.1085 59.3252 71.4181 57.3233 70.5207 55.528C68.5192 51.7304 66.5853 47.5196 64.8593 43.5153C63.6172 40.8226 62.8575 38.1299 61.3385 35.6447C54.2275 23.9079 46.4949 16.7969 34.62 9.82359C32.0655 8.37393 29.028 7.7524 25.783 6.99314C24.0575 6.92384 22.331 6.78611 20.605 6.71681C19.5006 6.23344 18.3957 4.92195 17.4289 4.30041C13.4944 1.81472 3.34506 -3.56987 0.445313 3.54115C-1.41885 8.02875 3.2069 12.447 4.79471 14.7257C5.96892 16.3135 7.48744 18.1084 8.31601 19.9037C8.79938 21.0766 8.9371 22.3201 9.42047 23.5627C10.5254 26.5997 11.5605 29.9833 13.0106 32.8142C13.7703 34.2639 14.5985 35.7828 15.5652 37.0943C16.1174 37.8536 17.0837 38.1992 17.2912 39.4418C16.3249 40.8226 16.2556 42.8938 15.7029 44.6198C13.2177 52.4212 14.1844 62.0868 17.7052 67.817C18.8097 69.5426 21.4335 73.3406 24.9544 71.8905C28.0612 70.6479 27.3708 66.7126 28.2683 63.2606C28.4757 62.4316 28.3376 61.8798 28.7516 61.3275C28.752 61.3964 28.7516 61.4657 28.7516 61.4657C29.7183 63.3987 30.6846 65.2629 31.5821 67.1959C33.7226 70.5786 37.4505 74.0999 40.5572 76.4474C42.2148 77.6896 43.5263 79.8301 45.5975 80.5898V80.3823H45.4593C45.0448 79.7608 44.4237 79.4849 43.8715 79.0015C42.6289 77.7589 41.2476 76.2399 40.2813 74.8592C37.382 70.9927 34.827 66.7126 32.5488 62.2938C31.4443 60.1538 30.4776 57.8062 29.5802 55.6662C29.1657 54.8372 29.1657 53.595 28.4753 53.1809C27.4397 54.6995 25.9212 56.0114 25.1615 57.8756C23.8504 60.8442 23.7118 64.5032 23.2284 68.3004C22.9525 68.3697 23.0903 68.3004 22.9521 68.4385C20.7432 67.8859 19.9835 65.6081 19.1549 63.6746C17.0837 58.773 16.7385 50.9023 18.5338 45.2414C19.0172 43.7913 21.0884 39.2348 20.2598 37.854C19.8457 36.5421 18.4645 35.7828 17.7052 34.7472C16.8078 33.4353 15.8411 31.7786 15.22 30.3285C13.5628 26.4625 12.7343 22.1819 10.9394 18.3154C10.1109 16.5201 8.66121 14.6564 7.48744 12.9997C6.17595 11.1355 4.72585 9.82359 3.69024 7.61423C3.34548 6.85496 2.86167 5.61234 3.41391 4.78377C3.55207 4.23154 3.82797 4.02451 4.38064 3.88634C5.27807 3.12664 7.83263 4.09337 8.73004 4.50743C11.2846 5.54259 13.4247 6.50977 15.5652 7.95942C16.5314 8.64982 17.567 9.96176 18.8097 10.307H20.2598C22.4691 10.7899 24.9544 10.4451 27.0256 11.0662C30.685 12.2395 33.9984 13.966 36.9675 15.8301C46.012 21.5603 53.4677 29.7074 58.508 39.4418C59.3366 41.0292 59.6813 42.4798 60.441 44.1365C61.8911 47.5196 63.686 50.9716 65.1357 54.2854C66.5853 57.5299 67.9661 60.8442 70.0373 63.5369C71.0733 64.9862 75.2153 65.7458 77.0794 66.5055C78.4602 67.1266 80.6007 67.6793 81.8434 68.4386C84.1905 69.8878 86.538 71.5454 88.7473 73.1332C89.8522 73.9613 93.3038 75.6878 93.5113 77.0681Z" fill="#00758F"/>
<path d="M23.09 17.0723C21.9162 17.0723 21.0881 17.2109 20.2595 17.4179C20.2595 17.4179 20.2595 17.4872 20.2595 17.5561H20.3977C20.9504 18.6605 21.9162 19.4202 22.6066 20.3865C23.1593 21.491 23.6422 22.5959 24.1949 23.7008C24.2637 23.6315 24.3326 23.5626 24.3326 23.5626C25.2998 22.8718 25.7827 21.7673 25.7827 20.1106C25.3682 19.6273 25.2993 19.1439 24.9541 18.6605C24.5401 17.9697 23.6422 17.6249 23.09 17.0723Z" fill="#00758F"/>
</g>
<defs>
<clipPath id="clip0_51_127">
<rect width="101.587" height="100" fill="white"/>
</clipPath>
</defs>
</svg>
