<svg width="97" height="100" viewBox="0 0 97 100" fill="none" xmlns="http://www.w3.org/2000/svg">
<g clip-path="url(#clip0_52_156)">
<path d="M96.5938 59.881C96.0125 58.1203 94.4894 56.8937 92.5195 56.5992C91.5908 56.4606 90.5271 56.5197 89.2685 56.7793C87.0747 57.2319 85.447 57.4041 84.2592 57.4377C88.7426 49.8675 92.3885 41.2348 94.4874 33.1086C97.8811 19.9691 96.0675 13.9832 93.9483 11.2754C88.3398 4.10905 80.1569 0.258924 70.2846 0.140903C65.0186 0.07663 60.3952 1.11642 57.9838 1.86396C55.7382 1.46802 53.3236 1.24676 50.7901 1.20578C46.0417 1.13008 41.8458 2.16517 38.2606 4.29268C36.2753 3.62173 33.0901 2.67555 29.4113 2.07156C20.7588 0.651058 13.7855 1.75804 8.68486 5.36137C2.50836 9.72433 -0.355046 17.3045 0.174592 27.8917C0.342554 31.2532 2.22305 41.4802 5.18365 51.1797C6.88521 56.7544 8.69964 61.3841 10.5766 64.9408C13.2382 69.9844 16.0861 72.9546 19.2834 74.0211C21.0757 74.6183 24.3317 75.0362 27.7565 72.1845C28.1905 72.7098 28.7695 73.2323 29.5383 73.7174C30.5142 74.333 31.7079 74.836 32.8997 75.1341C37.1957 76.2081 41.2196 75.9394 44.6526 74.4342C44.6736 75.0447 44.69 75.6281 44.7038 76.1318C44.7267 76.949 44.7491 77.75 44.7791 78.4991C44.9824 83.5653 45.3271 87.5043 46.3483 90.2602C46.4043 90.4121 46.4797 90.643 46.5595 90.8877C47.0687 92.4478 47.9209 95.059 50.088 97.1043C52.3326 99.2227 55.0473 99.8726 57.5336 99.8723C58.7806 99.8723 59.9704 99.7088 61.0138 99.4851C64.7338 98.6881 68.9584 97.4734 72.0144 93.1221C74.9035 89.0084 76.3081 82.8126 76.5623 73.0498C76.5952 72.7739 76.6257 72.5103 76.655 72.259C76.6747 72.0895 76.6949 71.9162 76.7153 71.7433L77.3961 71.8031L77.5714 71.8149C81.3602 71.9876 85.9928 71.1841 88.8378 69.8626C91.086 68.8192 98.29 65.0161 96.5938 59.881Z" fill="black"/>
<path d="M90.1156 60.8798C78.8506 63.2035 78.0762 59.3894 78.0762 59.3894C89.9703 41.7405 94.9424 19.3378 90.6515 13.8548C78.9458 -1.10156 58.6825 5.97186 58.3443 6.15549L58.2355 6.17498C56.0098 5.71297 53.5191 5.43774 50.7197 5.39205C45.6224 5.30852 41.756 6.72835 38.822 8.95328C38.822 8.95328 2.67428 -5.93817 4.35546 27.6821C4.7131 34.8346 14.6069 81.8008 26.4079 67.6148C30.7211 62.4275 34.8886 58.0415 34.8886 58.0415C36.9586 59.4165 39.4365 60.1179 42.0343 59.866L42.2361 59.6946C42.1734 60.3387 42.2021 60.9687 42.317 61.7144C39.2769 65.1111 40.1702 65.7074 34.0929 66.9584C27.9435 68.2257 31.556 70.482 33.9146 71.0717C36.774 71.7867 43.3892 72.7997 47.859 66.5425L47.6808 67.2565C48.8719 68.2105 49.7084 73.4623 49.5682 78.223C49.428 82.9839 49.3344 86.2525 50.273 88.8055C51.2115 91.3585 52.147 97.1028 60.1361 95.3909C66.8118 93.9603 70.2711 90.2531 70.7524 84.0692C71.0939 79.6729 71.8667 80.3228 71.9156 76.3922L72.5355 74.5314C73.2503 68.572 72.649 66.6494 76.7618 67.5436L77.7613 67.6314C80.7884 67.7691 84.7503 67.1445 87.0755 66.0637C92.0826 63.74 95.0521 59.8604 90.1152 60.8798H90.1156Z" fill="#336791"/>
<path d="M40.9378 30.8808C39.9229 30.7395 39.0033 30.8703 38.5382 31.2223C38.2764 31.4205 38.1956 31.6501 38.1738 31.8082C38.1154 32.2267 38.4088 32.6894 38.5888 32.9281C39.0985 33.6038 39.8434 34.0683 40.5806 34.1706C40.6874 34.1854 40.7936 34.1925 40.8993 34.1925C42.1288 34.1925 43.2463 33.2354 43.3448 32.5288C43.468 31.644 42.1834 31.0541 40.9378 30.8808Z" fill="white"/>
<path d="M74.5683 30.9088C74.4715 30.2152 73.2369 30.0174 72.0656 30.1803C70.8962 30.3433 69.7619 30.8711 69.8566 31.5663C69.9328 32.1069 70.9085 33.0298 72.0641 33.0296C72.1615 33.0296 72.26 33.0231 72.3592 33.0092C73.1305 32.9024 73.6964 32.4126 73.9652 32.1302C74.3748 31.7002 74.6115 31.2205 74.5683 30.9088Z" fill="white"/>
<path d="M93.8644 60.6157C93.4349 59.3168 92.0525 58.8987 89.7554 59.3732C82.9353 60.7807 80.4929 59.8057 79.6907 59.2151C84.992 51.1391 89.353 41.3774 91.7056 32.2692C92.8202 27.9548 93.4358 23.9481 93.4859 20.6825C93.5415 17.0976 92.9312 14.4637 91.672 12.8546C86.5953 6.36774 79.1447 2.88825 70.1257 2.79263C63.9254 2.72298 58.6868 4.30988 57.6712 4.75598C55.5325 4.22411 53.201 3.89759 50.663 3.85594C46.0082 3.78069 41.985 4.89506 38.6537 7.16634C37.2068 6.62797 33.4673 5.3443 28.8945 4.60773C20.9882 3.33458 14.7058 4.29913 10.2223 7.47539C4.87267 11.2655 2.40296 18.0404 2.88154 27.6115C3.04256 30.8319 4.87715 40.7378 7.7728 50.2247C11.5842 62.7109 15.727 69.7796 20.0864 71.2335C20.5965 71.4037 21.1851 71.5229 21.8336 71.5229C23.4239 71.5229 25.3734 70.806 27.4019 68.3674C30.7712 64.314 33.917 60.9173 35.0766 59.6832C36.7903 60.6031 38.6725 61.1167 40.5983 61.1682C40.6016 61.2186 40.6068 61.2689 40.6113 61.3191C40.225 61.7773 39.9081 62.1788 39.638 62.5217C38.3039 64.2152 38.0262 64.5677 33.7318 65.4521C32.5104 65.704 29.2656 66.3727 29.2183 68.6469C29.1666 71.1316 33.0532 72.1752 33.4962 72.2859C35.0394 72.6722 36.526 72.8628 37.9438 72.8628C41.3922 72.8625 44.4264 71.7293 46.8516 69.5367C46.7768 78.395 47.1463 87.1238 48.2098 89.7834C49.0808 91.9604 51.209 97.2814 57.9312 97.281C58.9173 97.281 60.0032 97.1663 61.1975 96.9103C68.2129 95.4061 71.2593 92.3055 72.4379 85.4697C73.0686 81.8164 74.1509 73.0923 74.6597 68.4129C75.734 68.7479 77.1171 68.9013 78.6122 68.9011C81.7304 68.9011 85.3284 68.2387 87.5849 67.1913C90.1196 66.0142 94.6939 63.1252 93.8644 60.6157ZM77.1576 28.9942C77.1343 30.3757 76.9442 31.6298 76.7427 32.939C76.5259 34.347 76.3015 35.8026 76.245 37.5698C76.1893 39.2895 76.4041 41.0775 76.6119 42.8064C77.0316 46.2987 77.4622 49.8941 75.7949 53.4419C75.5358 52.9817 75.2857 52.4796 75.0563 51.9236C74.8492 51.4212 74.3993 50.6144 73.7765 49.4975C71.3524 45.1507 65.6763 34.9713 68.582 30.8175C69.4473 29.5809 71.6438 28.31 77.1576 28.9942ZM70.4743 5.59019C78.5553 5.76868 84.9475 8.79176 89.4735 14.575C92.9447 19.011 89.1223 39.1955 78.0568 56.6086C77.9475 56.4697 77.8362 56.3295 77.7211 56.1858C77.6752 56.1282 77.6284 56.0698 77.5811 56.0106C80.4405 51.2882 79.8813 46.616 79.3837 42.4734C79.1792 40.7734 78.9862 39.1677 79.0352 37.6596C79.0861 36.0606 79.2975 34.6898 79.5017 33.3641C79.7532 31.7301 80.0087 30.0398 79.9382 28.0469C79.9908 27.8379 80.0121 27.5909 79.9845 27.2977C79.8045 25.3866 77.6228 19.6676 73.1756 14.4906C70.7433 11.6594 67.1957 8.49077 62.3522 6.35363C64.4356 5.92186 67.2847 5.5192 70.4743 5.59019ZM25.2553 66.5826C23.0206 69.2695 21.4771 68.7546 20.9696 68.5856C17.6626 67.4824 13.8257 60.4932 10.4427 49.4097C7.51548 39.8196 5.80474 30.1762 5.66948 27.472C5.24196 18.9198 7.31505 12.9594 11.8314 9.75653C19.1814 4.54413 31.2657 7.66396 36.1213 9.24638C36.0514 9.31513 35.9789 9.37962 35.9097 9.4495C27.9418 17.4966 28.1308 31.2453 28.1503 32.0855C28.1496 32.4098 28.1767 32.8689 28.2141 33.5004C28.3512 35.8127 28.6063 40.1166 27.9248 44.9906C27.2913 49.5197 28.6873 53.9528 31.7545 57.153C32.0721 57.4842 32.4035 57.7953 32.746 58.088C31.3806 59.5501 28.4135 62.7833 25.2553 66.5826ZM33.7701 55.2214C31.2979 52.6422 30.1753 49.0543 30.6894 45.3771C31.4092 40.2283 31.1434 35.7442 31.0007 33.3352C30.9808 32.9981 30.9631 32.7027 30.9526 32.4696C32.1167 31.4377 37.5109 28.5472 41.3577 29.4286C43.1134 29.8308 44.1828 31.026 44.6276 33.0823C46.9293 43.7273 44.9324 48.1641 43.3278 51.7294C42.997 52.464 42.6846 53.1582 42.4176 53.8766L42.2109 54.4318C41.6873 55.8357 41.2002 57.1409 40.8984 58.3805C38.2706 58.3724 35.714 57.25 33.7701 55.2214ZM34.1734 69.5777C33.4062 69.3859 32.716 69.0529 32.3111 68.7768C32.6492 68.6176 33.2512 68.4012 34.295 68.1863C39.3471 67.146 40.1271 66.4121 41.8309 64.2488C42.2217 63.753 42.6644 63.1906 43.2776 62.5058L43.2783 62.5049C44.1917 61.4824 44.6094 61.6557 45.367 61.9699C45.9811 62.2241 46.579 62.9936 46.8216 63.8405C46.9362 64.2405 47.0652 64.9999 46.6435 65.5905C43.0843 70.5738 37.8981 70.5097 34.1734 69.5777ZM60.6123 94.1809C54.432 95.5051 52.2438 92.3516 50.8018 88.7467C49.8711 86.4193 49.4138 75.9244 49.7383 64.3348C49.7425 64.1805 49.7206 64.0316 49.678 63.8916C49.6411 63.6213 49.5842 63.3478 49.5054 63.0726C49.0225 61.3863 47.8466 59.9756 46.4357 59.3909C45.8752 59.1587 44.8461 58.7325 43.6097 59.0487C43.8735 57.9623 44.3308 56.7358 44.8264 55.4073L45.0345 54.8483C45.2687 54.2184 45.5623 53.5658 45.8732 52.8751C47.5523 49.1446 49.8521 44.0352 47.3561 32.4922C46.4212 28.1689 43.2993 26.0577 38.5666 26.548C35.7292 26.8416 33.1336 27.9864 31.839 28.6428C31.5606 28.7839 31.306 28.92 31.0681 29.0528C31.4294 24.6966 32.7948 16.5558 37.9017 11.4052C41.1169 8.16247 45.3993 6.56101 50.6168 6.64723C60.8972 6.81564 67.4896 12.0914 71.21 16.4878C74.4158 20.2763 76.1519 24.0924 76.8448 26.1505C71.6346 25.6208 68.0911 26.6494 66.2946 29.2174C62.3867 34.8036 68.4326 45.6463 71.3383 50.8571C71.8711 51.8123 72.3311 52.6375 72.4758 52.9882C73.422 55.2815 74.647 56.8124 75.5414 57.9301C75.8155 58.2725 76.0816 58.6046 76.2838 58.8946C74.7059 59.3497 71.8713 60.4007 72.1296 65.6547C71.9213 68.2913 70.4396 80.6344 69.6872 84.9954C68.6937 90.7567 66.5736 92.9028 60.6123 94.1809ZM86.4094 64.6593C84.7959 65.4084 82.0955 65.9703 79.5302 66.0908C76.6968 66.2236 75.2545 65.7734 74.9152 65.4966C74.7558 62.2225 75.9747 61.8803 77.2645 61.5182C77.4671 61.4611 77.6649 61.4058 77.8557 61.339C77.9744 61.4356 78.1043 61.5314 78.2465 61.6252C80.5238 63.1284 84.5858 63.2905 90.32 62.107C90.341 62.1025 90.3621 62.0984 90.3829 62.0942C89.6096 62.8173 88.2861 63.7879 86.4094 64.6593Z" fill="white"/>
</g>
<defs>
<clipPath id="clip0_52_156">
<rect width="96.9697" height="100" fill="white"/>
</clipPath>
</defs>
</svg>
